<svg width="16" height="16" viewBox="0 0 16 16" fill="none" xmlns="http://www.w3.org/2000/svg">
<path fill-rule="evenodd" clip-rule="evenodd" d="M0.323093 15.6769C0.753883 16.1077 1.45419 16.1077 1.88498 15.6769L8 9.56189L14.115 15.6769C14.5458 16.1077 15.2461 16.1077 15.6769 15.6769C16.1077 15.2461 16.1077 14.5458 15.6769 14.115L9.56189 8L15.6769 1.88498C16.1077 1.45419 16.1077 0.753883 15.6769 0.323093C15.2461 -0.107698 14.5458 -0.107698 14.115 0.323093L8 6.43811L1.88498 0.323093C1.45419 -0.107698 0.753883 -0.107698 0.323093 0.323093C-0.107698 0.753883 -0.107698 1.45419 0.323093 1.88498L6.43811 8L0.323093 14.115C-0.107698 14.5458 -0.107698 15.2461 0.323093 15.6769Z" fill="black"/>
<mask id="mask0" mask-type="alpha" maskUnits="userSpaceOnUse" x="0" y="0" width="16" height="16">
<path fill-rule="evenodd" clip-rule="evenodd" d="M0.323093 15.6769C0.753883 16.1077 1.45419 16.1077 1.88498 15.6769L8 9.56189L14.115 15.6769C14.5458 16.1077 15.2461 16.1077 15.6769 15.6769C16.1077 15.2461 16.1077 14.5458 15.6769 14.115L9.56189 8L15.6769 1.88498C16.1077 1.45419 16.1077 0.753883 15.6769 0.323093C15.2461 -0.107698 14.5458 -0.107698 14.115 0.323093L8 6.43811L1.88498 0.323093C1.45419 -0.107698 0.753883 -0.107698 0.323093 0.323093C-0.107698 0.753883 -0.107698 1.45419 0.323093 1.88498L6.43811 8L0.323093 14.115C-0.107698 14.5458 -0.107698 15.2461 0.323093 15.6769Z" fill="white"/>
</mask>
<g mask="url(#mask0)">
</g>
</svg>
