<?xml version="1.0" encoding="utf-8"?>
<!-- Generator: Adobe Illustrator 19.0.1, SVG Export Plug-In . SVG Version: 6.00 Build 0)  -->
<svg version="1.1" id="Layer_1" xmlns="http://www.w3.org/2000/svg" xmlns:xlink="http://www.w3.org/1999/xlink" x="0px" y="0px"
	 viewBox="-81 141 448 512" style="enable-background:new -81 141 448 512;" xml:space="preserve">
<style type="text/css">
	.st0{fill:#E2E5E7;}
	.st1{fill:#B0B7BD;}
	.st2{fill:#CAD1D8;}
	.st3{fill:#50BEE8;}
	.st4{fill:#FFFFFF;}
</style>
<g>
	<path class="st0" d="M15,141c-17.6,0-32,14.4-32,32v448c0,17.6,14.4,32,32,32h320c17.6,0,32-14.4,32-32V269L239,141H15z"/>
	<path class="st1" d="M271,269h96L239,141v96C239,254.6,253.4,269,271,269z"/>
	<polygon class="st2" points="367,365 271,269 367,269 	"/>
	<path class="st3" d="M303,557c0,8.8-7.2,16-16,16H-65c-8.8,0-16-7.2-16-16V397c0-8.8,7.2-16,16-16h352c8.8,0,16,7.2,16,16V557z"/>
	<g>
		<path class="st4" d="M-13,444.2c0-4.2,3.3-8.8,8.7-8.8h29.6c16.6,0,31.6,11.1,31.6,32.5c0,20.2-15,31.5-31.6,31.5H3.9v16.9
			c0,5.6-3.6,8.8-8.2,8.8c-4.2,0-8.7-3.2-8.7-8.8C-13,516.2-13,444.2-13,444.2z M3.9,451.4v31.9h21.4c8.6,0,15.4-7.6,15.4-15.5
			c0-9-6.8-16.4-15.4-16.4L3.9,451.4L3.9,451.4z"/>
		<path class="st4" d="M71.3,455.7c2.9-24.8,40.4-29.3,58.1-15.7c8.7,7-0.5,18.2-8.2,12.5c-9.5-6-31-8.8-33.6,4.5
			c-3.5,21,52.2,9,51.3,43c-0.9,32.5-48,33.3-65.6,18.7c-4.2-3.4-4.1-9.1-1.8-12.5c3.3-3.3,7-4.5,11.4-0.9
			c10.5,7.2,37.5,12.5,39.4-5.6C120.6,480.6,67.3,492,71.3,455.7z"/>
		<path class="st4" d="M165.2,525c-4.2,0-8.8-2.3-8.8-7.9v-72.7c0-4.6,4.6-7.9,8.8-7.9h29.3c58.5,0,57.2,88.5,1.2,88.5H165.2z
			 M173.3,452.1v57.3h21.2c34.5,0,36.1-57.3,0-57.3H173.3z"/>
	</g>
	<path class="st2" d="M287,573H-17v16h304c8.8,0,16-7.2,16-16v-16C303,565.8,295.8,573,287,573z"/>
</g>
</svg>
