<svg width="44" height="44" viewBox="0 0 44 44" fill="none" xmlns="http://www.w3.org/2000/svg">
<mask id="mask0" mask-type="alpha" maskUnits="userSpaceOnUse" x="0" y="0" width="44" height="44">
<circle cx="22" cy="22" r="22" fill="#8B2929"/>
</mask>
<g mask="url(#mask0)">
<path d="M26.7331 8.71101C26.7331 8.71101 29.3855 9.91494 31.0759 11.3384C33.7071 13.5551 34.3295 14.1995 34.3295 14.1995C34.5771 9.7379 32.2571 6.63599 31.0759 6.42353C29.8948 6.21107 26.7261 8.71101 26.7331 8.71101C24.6749 7.71245 23.2037 7.76203 22.0013 7.76203C20.7989 7.76203 19.1651 7.72662 17.2766 8.71101C17.2766 8.71101 14.1079 6.20399 12.9267 6.42353C11.7455 6.63599 9.43267 9.7379 9.67315 14.1995H9.6873C9.6873 14.1995 10.3097 13.5551 12.9409 11.3384C14.6242 9.92203 17.2837 8.71101 17.2837 8.71101" fill="#FBB03B"/>
<path d="M29.9445 6.67139C29.9445 6.67139 31.6632 8.90929 31.3096 9.27755C30.9559 9.64581 27.4336 8.19401 27.4336 8.19401C27.4336 8.19401 28.3036 7.58496 28.6643 7.36542C29.3292 6.94758 29.9445 6.67139 29.9445 6.67139Z" fill="#FFCD5F"/>
<path d="M14.0864 6.67847C14.0864 6.67847 12.3676 8.91637 12.7213 9.28463C13.0749 9.65289 16.5973 8.20109 16.5973 8.20109C16.5973 8.20109 15.699 7.55663 15.1049 7.2167C14.539 6.88384 14.0864 6.67847 14.0864 6.67847Z" fill="#FFCD5F"/>
<path d="M3.03874 36.1538C3.01045 35.8281 2.98923 35.5023 2.96094 35.1765C3.85213 34.5392 4.73625 33.8947 5.62745 33.2573C5.66281 33.746 5.70525 34.2346 5.74061 34.7162C4.83527 35.1978 3.93701 35.6794 3.03874 36.1538Z" fill="#333333"/>
<path d="M3.10954 37.1313C3.08125 36.8055 3.06003 36.4797 3.03174 36.1539C3.93001 35.6724 4.83535 35.1979 5.73361 34.7163C5.76898 35.205 5.81141 35.6936 5.84678 36.1752C4.94144 36.501 4.02195 36.8126 3.10954 37.1313Z" fill="#4D4D4D"/>
<path d="M3.18718 38.1084C3.15889 37.7826 3.13767 37.4569 3.10938 37.1311C4.02179 36.8124 4.9342 36.5008 5.85368 36.1821C5.88905 36.6708 5.93149 37.1594 5.96685 37.641C5.04029 37.7968 4.11374 37.9526 3.18718 38.1084Z" fill="#333333"/>
<path d="M3.26481 39.0788C3.23652 38.753 3.2153 38.4272 3.18701 38.1014C4.11357 37.9456 5.04013 37.7969 5.96668 37.6411C6.00205 38.1298 6.04449 38.6184 6.07985 39.1C5.13915 39.0929 4.19844 39.0858 3.26481 39.0788Z" fill="#4D4D4D"/>
<path d="M3.33561 40.0559C3.30732 39.7302 3.2861 39.4044 3.25781 39.0786C4.19852 39.0857 5.13922 39.0928 6.07285 39.1069C6.10822 39.5956 6.15066 40.0842 6.18602 40.5658C5.23824 40.3959 4.29046 40.2259 3.33561 40.0559Z" fill="#333333"/>
<path d="M3.41374 41.0261C3.38545 40.7004 3.36423 40.3746 3.33594 40.0488C4.29079 40.2188 5.23857 40.3888 6.19342 40.5587C6.22878 41.0474 6.27122 41.536 6.30659 42.0176C5.34466 41.6918 4.37566 41.359 3.41374 41.0261Z" fill="#4D4D4D"/>
<path d="M3.49138 42.0034C3.46309 41.6777 3.44187 41.3519 3.41357 41.0261C4.3755 41.359 5.34449 41.6918 6.30642 42.0247C6.34178 42.5133 6.38422 43.002 6.41958 43.4836C5.44351 42.9949 4.46745 42.4992 3.49138 42.0034Z" fill="#333333"/>
<path d="M41.261 36.1536C41.2892 35.8278 41.3105 35.5021 41.3388 35.1763C40.4476 34.5389 39.5634 33.8945 38.6723 33.2571C38.6369 33.7457 38.5944 34.2344 38.5591 34.716C39.4573 35.1975 40.3698 35.6791 41.261 36.1536Z" fill="#333333"/>
<path d="M41.1904 37.131C41.2187 36.8052 41.2399 36.4795 41.2682 36.1537C40.3699 35.6721 39.4646 35.1976 38.5663 34.7161C38.5309 35.2047 38.4885 35.6934 38.4531 36.1749C39.3585 36.5007 40.2709 36.8123 41.1904 37.131Z" fill="#4D4D4D"/>
<path d="M41.12 38.1082C41.1483 37.7824 41.1695 37.4566 41.1978 37.1309C40.2854 36.8122 39.373 36.5006 38.4535 36.1819C38.4181 36.6705 38.3757 37.1592 38.3403 37.6408C39.2598 37.7966 40.1934 37.9524 41.12 38.1082Z" fill="#333333"/>
<path d="M41.0421 39.0785C41.0704 38.7527 41.0916 38.427 41.1199 38.1012C40.1933 37.9454 39.2668 37.7967 38.3402 37.6409C38.3049 38.1295 38.2624 38.6182 38.2271 39.0998C39.1536 39.0927 40.0943 39.0856 41.0421 39.0785Z" fill="#4D4D4D"/>
<path d="M40.9569 40.0557C40.9851 39.7299 41.0064 39.4041 41.0347 39.0784C40.0939 39.0855 39.1532 39.0925 38.2196 39.1067C38.1842 39.5954 38.1418 40.084 38.1064 40.5656C39.0613 40.3956 40.0161 40.2256 40.9569 40.0557Z" fill="#333333"/>
<path d="M40.8865 41.0259C40.9148 40.7001 40.936 40.3744 40.9643 40.0486C40.0094 40.2186 39.0617 40.3885 38.1068 40.5585C38.0715 41.0471 38.029 41.5358 37.9937 42.0174C38.9626 41.6916 39.9175 41.3587 40.8865 41.0259Z" fill="#4D4D4D"/>
<path d="M40.8086 42.0032C40.8369 41.6774 40.8581 41.3516 40.8864 41.0259C39.9245 41.3587 38.9555 41.6916 37.9935 42.0244C37.9582 42.5131 37.9157 43.0017 37.8804 43.4833C38.8564 42.9947 39.8396 42.4989 40.8086 42.0032Z" fill="#333333"/>
<path d="M22.1498 49.8221C31.3062 49.8221 38.7289 41.0043 38.7289 30.1271C38.7289 19.2499 31.3062 10.4321 22.1498 10.4321C12.9935 10.4321 5.5708 19.2499 5.5708 30.1271C5.5708 41.0043 12.9935 49.8221 22.1498 49.8221Z" fill="#333333"/>
<path d="M17.0432 66.5072H27.2565C34.3083 61.309 39.4291 46.097 39.4291 32.4217C39.4291 32.0393 39.422 31.671 39.415 31.2957C38.2408 31.4302 37.0172 31.9755 35.4117 32.705C32.5047 34.0151 28.5297 35.8069 22.1499 35.8069C15.77 35.8069 11.795 34.0151 8.88805 32.705C7.28248 31.9826 6.05886 31.4373 4.88475 31.2957C4.87768 31.671 4.87061 32.0393 4.87061 32.4217C4.87061 46.097 9.99143 61.309 17.0432 66.5072Z" fill="#F7931E"/>
<path d="M7.43809 44.9494C7.43809 40.7782 8.29392 36.7769 9.82875 33.1155C9.5034 32.9738 9.18511 32.8322 8.88805 32.6976C7.28248 31.9753 6.05886 31.43 4.88475 31.2883C4.87768 31.6637 4.87061 32.0319 4.87061 32.4144C4.87061 39.7725 6.35593 47.5698 8.81732 54.0144C7.91905 51.1391 7.43809 48.0938 7.43809 44.9494Z" fill="#FFBF3E"/>
<path d="M39.4147 31.2883C38.2406 31.4229 37.0169 31.9682 35.4114 32.6976C34.5273 33.0942 33.5441 33.5404 32.4195 33.9653C32.6105 34.6877 32.759 35.403 32.8651 36.0899C33.3532 39.383 33.8553 42.7257 33.5441 46.0613C32.8085 53.9719 28.3101 63.8866 18.797 63.2847C16.1376 63.1147 13.6832 62.0878 11.8726 60.4094C13.4215 63.0085 15.1615 65.1189 17.05 66.4999H27.2633C34.3151 61.3017 39.4359 46.0896 39.4359 32.4144C39.4288 32.0319 39.4218 31.6637 39.4147 31.2883Z" fill="#EF8114"/>
<path d="M9.87107 30.5164C12.7285 31.8053 16.2862 33.4059 22.1497 33.4059C28.0132 33.4059 31.5709 31.8053 34.4284 30.5164C36.0976 29.7657 37.6537 29.0646 39.3017 28.9088C38.2902 14.4757 31.0051 7.47168 22.1497 7.47168C13.2944 7.47876 6.00216 14.4757 4.99072 28.9159C6.6458 29.0646 8.20185 29.7657 9.87107 30.5164Z" fill="#FBB03B"/>
<path d="M7.23992 28.4484C7.23992 19.4827 12.4881 11.5579 20.0208 7.62744C12.1486 8.67557 5.91728 15.6513 4.99072 28.9158C5.76168 28.9867 6.51141 29.1779 7.26114 29.4399C7.247 29.1071 7.23992 28.7813 7.23992 28.4484Z" fill="#FFCD5F"/>
<path d="M33.4311 12.5139C34.7891 14.6456 35.5742 17.1526 35.5742 19.8225C35.5742 26.3592 30.8353 31.9539 24.6606 33.2995C29.0742 32.9242 32.0024 31.6069 34.4284 30.5163C36.0976 29.7656 37.6537 29.0645 39.3017 28.9087C38.7853 21.508 36.621 16.062 33.4311 12.5139Z" fill="#F7931E"/>
<path d="M22.1499 56.6557C27.107 56.6557 31.1255 52.6321 31.1255 47.6687C31.1255 42.7053 27.107 38.6816 22.1499 38.6816C17.1928 38.6816 13.1743 42.7053 13.1743 47.6687C13.1743 52.6321 17.1928 56.6557 22.1499 56.6557Z" fill="white"/>
<path d="M22.1499 39.8714C26.91 39.8714 30.8001 43.5753 31.1043 48.2635C31.1184 48.0652 31.1255 47.867 31.1255 47.6687C31.1255 42.7042 27.108 38.6816 22.1499 38.6816C17.1918 38.6816 13.1743 42.7042 13.1743 47.6687C13.1743 47.867 13.1814 48.0723 13.1955 48.2635C13.4997 43.5824 17.3898 39.8714 22.1499 39.8714Z" fill="#829727"/>
<path d="M22.1496 53.8446C18.7404 53.8446 15.9819 51.0614 15.9819 47.6691C15.9819 44.2556 18.7616 41.4937 22.1496 41.4937C25.5587 41.4937 28.3172 44.2769 28.3172 47.6691C28.3172 51.0614 25.5446 53.8446 22.1496 53.8446ZM22.1496 41.9823C19.0233 41.9823 16.4629 44.546 16.4629 47.6762C16.4629 50.8064 19.0021 53.3701 22.1496 53.3701C25.2758 53.3701 27.8362 50.8277 27.8362 47.6762C27.8221 44.5177 25.2758 41.9823 22.1496 41.9823Z" fill="url(#paint0_linear)"/>
<path d="M24.7098 49.6026C23.5074 50.2612 20.3175 50.849 19.8365 47.8746C19.3343 44.7443 22.4181 44.2415 23.8186 44.8081C23.8186 45.3109 23.8186 45.927 23.8186 45.927C23.8186 45.927 24.4976 46.0333 24.9573 45.9908C25.0422 45.4455 25.2827 44.4823 25.2402 44.0645C22.6586 42.2444 17.849 43.5404 18.1814 47.9596C18.5068 52.3787 23.6276 52.2937 25.2402 50.3674C25.0139 50.0133 24.8371 49.7513 24.7098 49.6026Z" fill="url(#paint1_linear)"/>
<path d="M13.1884 17.4715C13.2591 17.2733 13.3086 17.075 13.3865 16.8837C13.9452 15.5098 15.3457 14.66 16.8027 14.8229C18.2668 14.9858 19.4621 16.0906 19.738 17.5353C20.0067 18.9517 19.3702 20.3468 18.1183 21.0621C18.0688 21.0904 18.0192 21.1329 17.9556 21.1613C17.5807 21.4729 17.1068 21.5295 16.6542 21.5508C14.8223 21.6428 13.2167 20.2477 13.0611 18.4205C13.0399 18.1018 13.0965 17.7832 13.1884 17.4715Z" fill="black"/>
<path d="M19.4408 18.1301C19.4125 19.7944 18.0474 21.1329 16.4065 21.1046C14.7868 21.0762 13.4854 19.7307 13.5066 18.0947C13.5278 16.4517 14.8788 15.1416 16.5268 15.1699C18.3091 15.2124 19.462 16.6642 19.4408 18.1301Z" fill="#F3F3F3"/>
<path d="M19.1649 18.215C19.1579 19.5819 18.0828 20.63 16.7177 20.6158C15.3951 20.6088 14.3058 19.5181 14.32 18.215C14.327 16.919 15.4163 15.7222 16.8026 15.7434C18.0757 15.7718 19.1932 16.8128 19.1649 18.215Z" fill="black"/>
<path d="M18.5639 18.0948C18.5639 18.2223 18.5426 18.3568 18.5073 18.4843C18.3588 18.9659 17.9273 19.1996 17.4393 19.065C17.2978 19.0225 17.22 19.0084 17.121 19.1642C16.9229 19.4899 16.4703 19.4616 16.2652 19.1429C16.0883 18.8667 16.0954 18.4772 16.3147 18.2364C16.4208 18.1302 16.4208 18.0381 16.3854 17.9107C16.2935 17.6203 16.2864 17.3229 16.3783 17.0254C16.541 16.4872 16.9937 16.2676 17.5241 16.4447C18.0051 16.6076 18.5922 17.3724 18.5639 18.0948Z" fill="#B3DA26"/>
<path d="M14.6523 18.1303C14.6523 17.932 14.6947 17.762 14.7796 17.6133C14.8998 17.415 15.0908 17.3654 15.2888 17.4858C15.5081 17.6133 15.6 17.8045 15.5788 18.0524C15.5717 18.3144 15.4869 18.534 15.2393 18.6614C15.0413 18.7606 14.822 18.6827 14.7088 18.4844C14.6593 18.364 14.6381 18.2294 14.6523 18.1303Z" fill="#B3DA26"/>
<path d="M15.5366 19.2563C15.5295 19.3342 15.5295 19.4475 15.3951 19.4263C15.2891 19.4192 15.2254 19.3342 15.2325 19.2138C15.2325 19.1147 15.2749 19.0368 15.381 19.0368C15.48 19.0297 15.5366 19.1217 15.5366 19.2563Z" fill="#B3DA26"/>
<path d="M23.9886 17.4715C24.0593 17.2733 24.1088 17.075 24.1866 16.8837C24.7454 15.5098 26.1458 14.66 27.6029 14.8229C29.067 14.9858 30.2623 16.0906 30.5382 17.5353C30.8069 18.9517 30.1704 20.3468 28.9184 21.0621C28.8689 21.0904 28.8194 21.1329 28.7558 21.1613C28.3809 21.4729 27.907 21.5295 27.4543 21.5508C25.6224 21.6428 24.0169 20.2477 23.8613 18.4205C23.833 18.1018 23.8966 17.7832 23.9886 17.4715Z" fill="black"/>
<path d="M30.2484 18.1301C30.2201 19.7944 28.8551 21.1329 27.2141 21.1046C25.5944 21.0762 24.293 19.7307 24.3142 18.0947C24.3354 16.4517 25.6864 15.1416 27.3344 15.1699C29.1026 15.2124 30.2626 16.6642 30.2484 18.1301Z" fill="#F3F3F3"/>
<path d="M29.9652 18.215C29.9581 19.5819 28.8831 20.63 27.518 20.6158C26.1953 20.6088 25.1061 19.5181 25.1203 18.215C25.1273 16.919 26.2166 15.7222 27.6029 15.7434C28.8831 15.7718 29.9864 16.8128 29.9652 18.215Z" fill="black"/>
<path d="M29.3642 18.0948C29.3642 18.2223 29.343 18.3568 29.3076 18.4843C29.1591 18.9659 28.7276 19.1996 28.2396 19.065C28.0981 19.0225 28.0203 19.0084 27.9213 19.1642C27.7232 19.4899 27.2706 19.4616 27.0655 19.1429C26.8886 18.8667 26.8957 18.4772 27.115 18.2364C27.2211 18.1302 27.2211 18.0381 27.1857 17.9107C27.0937 17.6203 27.0867 17.3229 27.1786 17.0254C27.3413 16.4872 27.794 16.2676 28.3244 16.4447C28.8125 16.6076 29.3854 17.3724 29.3642 18.0948Z" fill="#B3DA26"/>
<path d="M25.4531 18.1303C25.4531 17.932 25.4956 17.762 25.5804 17.6133C25.7007 17.415 25.8917 17.3654 26.0897 17.4858C26.309 17.6133 26.4009 17.8045 26.3797 18.0524C26.3726 18.3144 26.2877 18.534 26.0402 18.6614C25.8421 18.7606 25.6229 18.6827 25.5097 18.4844C25.4531 18.364 25.4531 18.2294 25.4531 18.1303Z" fill="#B3DA26"/>
<path d="M26.3369 19.2563C26.3298 19.3342 26.3298 19.4475 26.1954 19.4263C26.0893 19.4192 26.0257 19.3342 26.0328 19.2138C26.0328 19.1147 26.0752 19.0368 26.1813 19.0368C26.2732 19.0297 26.3369 19.1217 26.3369 19.2563Z" fill="#B3DA26"/>
<path d="M20.2188 23.484C20.2188 24.2206 20.9473 24.8225 21.8243 24.8225C22.7155 24.8225 23.4299 24.2206 23.4228 23.484C23.4228 22.7475 22.7014 22.6767 21.8172 22.6838C20.9473 22.6838 20.2188 22.7475 20.2188 23.484Z" fill="black"/>
<path d="M26.1602 25.9131C27.6738 25.5307 29.1945 25.2049 30.7222 24.9217C32.25 24.6384 33.7919 24.3834 35.3338 24.1922C35.7157 24.1356 36.1047 24.086 36.4938 24.0435C36.8828 24.001 37.2647 23.9514 37.6537 23.9089C38.4317 23.8381 39.2027 23.7602 39.9807 23.7036C41.5297 23.569 43.0858 23.5194 44.6489 23.4699L43.4818 23.4557C43.0928 23.4486 42.7038 23.4415 42.3148 23.4557L41.1478 23.484C40.7588 23.4911 40.3697 23.5194 39.9807 23.5407C38.4247 23.6186 36.8686 23.7815 35.3196 23.9798C33.7707 24.1922 32.2358 24.4472 30.7081 24.7659C29.9442 24.9287 29.1874 25.0987 28.4235 25.2828C27.6526 25.4811 26.9028 25.6794 26.1602 25.9131Z" fill="black"/>
<path d="M26.9238 26.7135C27.6241 26.6214 28.3172 26.5435 29.0174 26.4727C29.7177 26.3948 30.4108 26.3311 31.111 26.2673C32.5115 26.1469 33.9119 26.0407 35.3124 25.977C36.0126 25.9345 36.7128 25.9132 37.413 25.8849C38.1133 25.8707 38.8135 25.8495 39.5208 25.8495L40.5747 25.8424L41.6285 25.8566C42.3288 25.8495 43.029 25.8991 43.7363 25.9132C42.3358 25.7857 40.9283 25.7008 39.5279 25.6866C38.1203 25.6654 36.7128 25.7008 35.3124 25.7645C33.9048 25.8424 32.5044 25.9486 31.104 26.1044C29.6964 26.2532 28.3031 26.4444 26.9238 26.7135Z" fill="black"/>
<path d="M26.6763 27.6482C27.2633 27.6411 27.8504 27.6411 28.4304 27.6482C29.0174 27.6553 29.5974 27.6624 30.1845 27.6836C31.3515 27.719 32.5256 27.7545 33.6927 27.8324C34.8597 27.8961 36.0267 27.9811 37.1938 28.0802C38.3608 28.1723 39.5208 28.2998 40.6878 28.4131C40.1078 28.3139 39.5349 28.2219 38.9549 28.1369C38.375 28.059 37.795 27.9811 37.2079 27.9173C36.0409 27.7828 34.8738 27.6978 33.7068 27.6199C32.5327 27.5632 31.3656 27.5208 30.1915 27.5208C29.0103 27.5208 27.8433 27.542 26.6763 27.6482Z" fill="black"/>
<path d="M17.4887 25.9131C15.9751 25.5307 14.4544 25.2049 12.9267 24.9217C11.3989 24.6384 9.857 24.3834 8.31509 24.1922C7.93315 24.1356 7.54414 24.086 7.15513 24.0435C6.76611 24.001 6.38417 23.9514 5.99516 23.9089C5.21713 23.8381 4.44618 23.7602 3.66816 23.7036C2.11918 23.569 0.563125 23.5194 -1 23.4699L0.167039 23.4557C0.556052 23.4486 0.945065 23.4415 1.33408 23.4557L2.50112 23.484C2.89013 23.4911 3.27914 23.5194 3.66816 23.5407C5.22421 23.6186 6.78026 23.7815 8.32924 23.9798C9.87822 24.1922 11.413 24.4472 12.9408 24.7659C13.7047 24.9287 14.4615 25.0987 15.2254 25.2828C15.9893 25.4811 16.7461 25.6794 17.4887 25.9131Z" fill="black"/>
<path d="M16.7182 26.7135C16.018 26.6214 15.3248 26.5435 14.6246 26.4727C13.9244 26.3948 13.2312 26.3311 12.531 26.2673C11.1306 26.1469 9.7301 26.0407 8.32966 25.977C7.62944 25.9345 6.92921 25.9132 6.22899 25.8849C5.52877 25.8707 4.82854 25.8495 4.12125 25.8495L3.06738 25.8424L2.0135 25.8566C1.31328 25.8495 0.613058 25.8991 -0.0942383 25.9132C1.30621 25.7857 2.71373 25.7008 4.11417 25.6866C5.52169 25.6654 6.92921 25.7008 8.32966 25.7645C9.73718 25.8424 11.1376 25.9486 12.5381 26.1044C13.9456 26.2532 15.339 26.4444 16.7182 26.7135Z" fill="black"/>
<path d="M16.9725 27.6482C16.3854 27.6411 15.7984 27.6411 15.2184 27.6482C14.6313 27.6553 14.0513 27.6624 13.4643 27.6836C12.2973 27.719 11.1231 27.7545 9.9561 27.8324C8.78906 27.8961 7.62202 27.9811 6.45498 28.0802C5.28794 28.1723 4.12798 28.2998 2.96094 28.4131C3.54092 28.3139 4.11383 28.2219 4.69381 28.1369C5.2738 28.059 5.85378 27.9811 6.44084 27.9173C7.60788 27.7828 8.77492 27.6978 9.94195 27.6199C11.1161 27.5632 12.2831 27.5208 13.4572 27.5208C14.6313 27.5208 15.8054 27.542 16.9725 27.6482Z" fill="black"/>
<path d="M19.165 27.8748C19.165 27.8748 21.0747 29.6807 22.0084 29.6736C22.9349 29.6666 25.1205 27.627 25.1205 27.627C25.1205 27.627 22.4257 28.9584 22.0084 28.9229C21.584 28.8875 19.165 27.8748 19.165 27.8748Z" fill="black"/>
</g>
<defs>
<linearGradient id="paint0_linear" x1="22.1531" y1="42.7854" x2="22.1531" y2="56.6069" gradientUnits="userSpaceOnUse">
<stop stop-color="#008BD2"/>
<stop offset="1" stop-color="#004F9F"/>
</linearGradient>
<linearGradient id="paint1_linear" x1="21.7087" y1="42.7854" x2="21.7087" y2="56.6067" gradientUnits="userSpaceOnUse">
<stop stop-color="#008BD2"/>
<stop offset="1" stop-color="#004F9F"/>
</linearGradient>
</defs>
</svg>
