<svg width="43" height="40" viewBox="0 0 43 40" fill="none" xmlns="http://www.w3.org/2000/svg">
<path d="M0.631516 31.734L16.6654 2.64377C17.534 1.0679 19.2108 0 21.1373 0C23.0638 0 24.7406 1.0679 25.6092 2.64377L41.6431 31.734C42.0453 32.4636 42.2746 33.3018 42.2746 34.1939C42.2746 37.0125 39.9898 39.2976 37.1709 39.2976H5.10371C2.2848 39.2976 3.8147e-06 37.0125 3.8147e-06 34.1939C3.8147e-06 33.3018 0.229321 32.4636 0.631516 31.734Z" fill="black"/>
<path d="M2.86632 32.9656L18.8999 3.87542C19.3502 3.05877 20.2074 2.55176 21.1373 2.55176C21.5934 2.55176 22.0317 2.67432 22.4132 2.89493C22.0165 3.12425 21.6814 3.45936 21.4518 3.87542L7.65524 36.7457H5.10371C3.69651 36.7457 2.55185 35.601 2.55185 34.1938C2.55185 33.7578 2.65764 33.3446 2.86632 32.9656Z" fill="#F46B4C"/>
<path d="M5.10372 34.1939C5.10372 33.7579 5.20951 33.3447 5.41819 32.9657L21.4518 3.87551C21.6814 3.45945 22.0165 3.12434 22.4132 2.89502C22.8096 3.12434 23.1451 3.45945 23.3744 3.87551L39.4083 32.9661C39.617 33.3447 39.7227 33.7579 39.7227 34.1939C39.7227 35.6011 38.5781 36.7458 37.1709 36.7458H7.65525C6.24837 36.7458 5.10372 35.6011 5.10372 34.1939Z" fill="#FF785A"/>
<path d="M19.8614 30.3661C19.8614 31.0709 20.4326 31.6421 21.1373 31.6421C21.842 31.6421 22.4132 31.0709 22.4132 30.3661C22.4132 29.6617 21.842 29.0902 21.1373 29.0902C20.4326 29.0902 19.8614 29.6617 19.8614 30.3661Z" fill="black"/>
<path d="M21.1373 13.7798C21.842 13.7798 22.4132 14.351 22.4132 15.0557V25.2628C22.4132 25.9672 21.842 26.5387 21.1373 26.5387C20.4326 26.5387 19.8614 25.9672 19.8614 25.2628V15.0557C19.8614 14.351 20.4326 13.7798 21.1373 13.7798Z" fill="black"/>
</svg>
