<svg width="10" height="19" viewBox="0 0 10 19" fill="none" xmlns="http://www.w3.org/2000/svg">
<path d="M5.00002 0C2.24339 0 0 2.31086 0 5.15203V14.9059C0 15.2541 0.273426 15.5359 0.611412 15.5359C0.949175 15.5359 1.2226 15.2541 1.2226 14.9059V5.15203C1.2226 3.00592 2.91679 1.25979 5.00002 1.25979C7.08347 1.25979 8.77762 3.00592 8.77762 5.15203V15.2081C8.77762 16.6041 7.67504 17.7402 6.31989 17.7402C6.30982 17.7402 6.30076 17.7458 6.29072 17.7464C6.27998 17.7458 6.27159 17.7402 6.26089 17.7402C4.90584 17.7402 3.80326 16.6041 3.80326 15.2081V9.1759C3.80326 8.49556 4.33986 7.94262 5.00002 7.94262C5.66033 7.94262 6.19696 8.49556 6.19696 9.1759V14.9059C6.19696 15.2541 6.47087 15.5359 6.80818 15.5359C7.14542 15.5359 7.41956 15.2541 7.41956 14.9059V9.1759C7.41956 7.80112 6.33425 6.68287 5.00002 6.68287C3.66597 6.68287 2.58066 7.80116 2.58066 9.1759V15.2081C2.58066 17.2986 4.23125 19 6.26085 19C6.27155 19 6.27994 18.9944 6.29069 18.9938C6.30076 18.9945 6.30982 19 6.31985 19C8.34897 19 10 17.2986 10 15.2081V5.15203C10 2.31086 7.75669 0 5.00002 0Z" fill="black"/>
</svg>
