<svg width="115" height="134" viewBox="0 0 115 134" fill="none" xmlns="http://www.w3.org/2000/svg">
<path d="M66.1337 4.24778C66.1337 4.24778 71.0628 6.47022 74.2043 9.09793C79.0939 13.1898 80.2506 14.3795 80.2506 14.3795C80.7107 6.14339 76.3994 0.417339 74.2043 0.0251441C72.0092 -0.367051 66.1206 4.24778 66.1337 4.24778C62.3087 2.40446 59.5747 2.49597 57.3402 2.49597C55.1057 2.49597 52.0694 2.43061 48.5598 4.24778C48.5598 4.24778 42.6712 -0.380124 40.4761 0.0251441C38.281 0.417339 33.9829 6.14339 34.4298 14.3795H34.4561C34.4561 14.3795 35.6128 13.1898 40.5024 9.09793C43.6308 6.48329 48.573 4.24778 48.573 4.24778" fill="#FBB03B"/>
<path d="M72.1013 0.482666C72.1013 0.482666 75.2953 4.61379 74.6381 5.29359C73.9809 5.9734 67.4351 3.2934 67.4351 3.2934C67.4351 3.2934 69.0518 2.16911 69.7222 1.76384C70.9577 0.99252 72.1013 0.482666 72.1013 0.482666Z" fill="#FFCD5F"/>
<path d="M42.6318 0.49585C42.6318 0.49585 39.4377 4.62697 40.095 5.30678C40.7522 5.98658 47.298 3.30658 47.298 3.30658C47.298 3.30658 45.6287 2.11692 44.5246 1.48941C43.473 0.874971 42.6318 0.49585 42.6318 0.49585Z" fill="#FFCD5F"/>
<path d="M24.703 99.2374C23.5858 99.2374 22.6131 98.3876 22.4948 97.2633C22.0479 93.0407 17.0005 91.9687 16.9479 91.9556C15.7518 91.7073 14.9763 90.5437 15.2129 89.3541C15.4626 88.1644 16.6193 87.3931 17.8286 87.6284C18.1703 87.6938 26.1358 89.3933 26.9113 96.8058C27.0427 98.0216 26.1489 99.1067 24.9265 99.2374C24.8608 99.2374 24.7819 99.2374 24.703 99.2374Z" fill="#333333"/>
<path d="M2.84418 106.558C1.95037 106.558 1.10914 106.022 0.767388 105.133C-1.37512 99.5642 1.63491 92.7793 1.76635 92.4917C2.26583 91.3804 3.58025 90.8836 4.69751 91.3804C5.81477 91.8772 6.31426 93.1845 5.81477 94.2957C5.14442 95.7861 3.68541 100.362 4.90782 103.538C5.34158 104.676 4.77638 105.957 3.63283 106.388C3.38309 106.519 3.10706 106.558 2.84418 106.558Z" fill="#333333"/>
<path d="M10.5994 112.049C10.0999 112.049 9.61355 111.892 9.19294 111.552C2.27907 105.918 6.27492 94.9755 6.44579 94.518C6.87955 93.3806 8.15454 92.7923 9.29809 93.2237C10.4416 93.6552 11.0331 94.9233 10.5994 96.0606C10.5468 96.1914 7.54991 104.519 11.9927 108.14C12.939 108.912 13.0836 110.31 12.3081 111.252C11.8744 111.775 11.2434 112.049 10.5994 112.049Z" fill="#333333"/>
<path d="M18.4463 109.186C18.1177 109.186 17.7759 109.108 17.4605 108.951C10.4546 105.499 10.2706 97.4464 11.1512 93.6682C11.4273 92.4786 12.6234 91.7465 13.8195 92.021C15.0156 92.2955 15.7517 93.4852 15.4888 94.6618C15.41 94.9886 13.8589 102.257 19.4321 105.003C20.5362 105.539 20.9831 106.872 20.4442 107.957C20.0499 108.742 19.2612 109.186 18.4463 109.186Z" fill="#333333"/>
<path d="M22.1006 54.9062C22.0481 54.3049 22.0086 53.7035 21.9561 53.1022C23.6122 51.9256 25.2553 50.7359 26.9114 49.5593C26.9772 50.4614 27.056 51.3634 27.1217 52.2524C25.4393 53.1414 23.77 54.0303 22.1006 54.9062Z" fill="#333333"/>
<path d="M22.232 56.7104C22.1794 56.109 22.14 55.5077 22.0874 54.9063C23.7567 54.0173 25.4392 53.1414 27.1085 52.2524C27.1742 53.1545 27.2531 54.0565 27.3188 54.9455C25.6363 55.5469 23.9276 56.1221 22.232 56.7104Z" fill="#4D4D4D"/>
<path d="M22.3765 58.5144C22.3239 57.913 22.2845 57.3117 22.2319 56.7103C23.9275 56.122 25.6231 55.5468 27.3319 54.9585C27.3976 55.8605 27.4765 56.7626 27.5422 57.6516C25.8203 57.9392 24.0984 58.2268 22.3765 58.5144Z" fill="#333333"/>
<path d="M22.521 60.3055C22.4685 59.7041 22.429 59.1027 22.3765 58.5014C24.0984 58.2138 25.8203 57.9392 27.5422 57.6516C27.6079 58.5537 27.6867 59.4557 27.7525 60.3447C26.0043 60.3316 24.2561 60.3185 22.521 60.3055Z" fill="#4D4D4D"/>
<path d="M22.6529 62.1095C22.6003 61.5082 22.5609 60.9068 22.5083 60.3054C24.2565 60.3185 26.0047 60.3316 27.7397 60.3577C27.8054 61.2598 27.8843 62.1618 27.95 63.0508C26.1887 62.737 24.4274 62.4233 22.6529 62.1095Z" fill="#333333"/>
<path d="M22.7974 63.9005C22.7448 63.2992 22.7054 62.6978 22.6528 62.0964C24.4273 62.4102 26.1886 62.7239 27.9631 63.0377C28.0288 63.9397 28.1077 64.8418 28.1734 65.7308C26.3858 65.1294 24.585 64.515 22.7974 63.9005Z" fill="#4D4D4D"/>
<path d="M22.942 65.7047C22.8894 65.1034 22.8499 64.502 22.7974 63.9006C24.585 64.5151 26.3857 65.1295 28.1734 65.744C28.2391 66.646 28.3179 67.548 28.3837 68.437C26.5698 67.535 24.7559 66.6199 22.942 65.7047Z" fill="#333333"/>
<path d="M93.1319 54.9062C93.1845 54.3049 93.2239 53.7035 93.2765 53.1022C91.6203 51.9256 89.9773 50.7359 88.3212 49.5593C88.2554 50.4614 88.1766 51.3634 88.1108 52.2524C89.7802 53.1414 91.4758 54.0303 93.1319 54.9062Z" fill="#333333"/>
<path d="M93.0009 56.7104C93.0534 56.109 93.0929 55.5077 93.1455 54.9063C91.4761 54.0173 89.7937 53.1414 88.1244 52.2524C88.0587 53.1545 87.9798 54.0565 87.9141 54.9455C89.5965 55.5469 91.2921 56.1221 93.0009 56.7104Z" fill="#4D4D4D"/>
<path d="M92.8693 58.5144C92.9219 57.913 92.9613 57.3117 93.0139 56.7103C91.3183 56.122 89.6227 55.5468 87.9139 54.9585C87.8482 55.8605 87.7693 56.7626 87.7036 57.6516C89.4124 57.9392 91.1474 58.2268 92.8693 58.5144Z" fill="#333333"/>
<path d="M92.7246 60.3055C92.7771 59.7041 92.8166 59.1027 92.8692 58.5014C91.1473 58.2138 89.4254 57.9392 87.7035 57.6516C87.6378 58.5537 87.5589 59.4557 87.4932 60.3447C89.2151 60.3316 90.9632 60.3185 92.7246 60.3055Z" fill="#4D4D4D"/>
<path d="M92.5667 62.1095C92.6192 61.5082 92.6587 60.9068 92.7113 60.3054C90.9631 60.3185 89.2149 60.3316 87.4798 60.3577C87.4141 61.2598 87.3353 62.1618 87.2695 63.0508C89.044 62.737 90.8185 62.4233 92.5667 62.1095Z" fill="#333333"/>
<path d="M92.4356 63.9005C92.4881 63.2992 92.5276 62.6978 92.5802 62.0964C90.8057 62.4102 89.0444 62.7239 87.2699 63.0377C87.2042 63.9397 87.1253 64.8418 87.0596 65.7308C88.8603 65.1294 90.6348 64.515 92.4356 63.9005Z" fill="#4D4D4D"/>
<path d="M92.2908 65.7047C92.3434 65.1034 92.3828 64.502 92.4354 63.9006C90.6478 64.5151 88.847 65.1295 87.0594 65.744C86.9937 66.646 86.9148 67.548 86.8491 68.437C88.663 67.535 90.4901 66.6199 92.2908 65.7047Z" fill="#333333"/>
<path d="M63.8863 113.526C63.8863 120.887 57.6165 126.848 57.6165 126.848C57.6165 126.848 51.3467 120.887 51.3467 113.526C51.3467 106.166 54.1464 100.205 57.6165 100.205C61.0734 100.205 63.8863 106.166 63.8863 113.526Z" fill="#B3DA26"/>
<path d="M62.1248 113.526C62.1248 118.821 57.6164 123.122 57.6164 123.122C57.6164 123.122 53.1079 118.821 53.1079 113.526C53.1079 108.232 55.1321 103.931 57.6164 103.931C60.1006 103.931 62.1248 108.232 62.1248 113.526Z" fill="#829727"/>
<path d="M60.4683 113.526C60.4683 116.873 57.616 119.579 57.616 119.579C57.616 119.579 54.7637 116.873 54.7637 113.526C54.7637 110.18 56.0387 107.473 57.616 107.473C59.1933 107.473 60.4683 110.18 60.4683 113.526Z" fill="white"/>
<path d="M57.6162 80.1375C74.6322 80.1375 88.4263 63.8602 88.4263 43.781C88.4263 23.7019 74.6322 7.42456 57.6162 7.42456C40.6003 7.42456 26.8062 23.7019 26.8062 43.781C26.8062 63.8602 40.6003 80.1375 57.6162 80.1375Z" fill="#333333"/>
<path d="M48.1261 110.938H67.1064C80.2112 101.342 89.7276 73.2609 89.7276 48.0166C89.7276 47.3107 89.7145 46.6309 89.7014 45.938C87.5194 46.1864 85.2455 47.193 82.2617 48.5395C76.8594 50.9581 69.4724 54.2656 57.6163 54.2656C45.7602 54.2656 38.3731 50.9581 32.9708 48.5395C29.9871 47.2061 27.7131 46.1995 25.5312 45.938C25.518 46.6309 25.5049 47.3107 25.5049 48.0166C25.5049 73.2609 35.0213 101.342 48.1261 110.938Z" fill="#F7931E"/>
<path d="M30.2762 71.1432C30.2762 63.4431 31.8667 56.0568 34.719 49.2979C34.1144 49.0365 33.5229 48.775 32.9708 48.5266C29.9871 47.1931 27.7131 46.1865 25.5312 45.925C25.518 46.6179 25.5049 47.2977 25.5049 48.0037C25.5049 61.5867 28.2652 75.9803 32.8394 87.8769C31.1701 82.5692 30.2762 76.9477 30.2762 71.1432Z" fill="#FFBF3E"/>
<path d="M89.7013 45.925C87.5193 46.1734 85.2454 47.1801 82.2616 48.5266C80.6186 49.2587 78.7915 50.0823 76.7016 50.8667C77.0565 52.2002 77.3325 53.5206 77.5297 54.7887C78.4366 60.8677 79.3699 67.0382 78.7915 73.1957C77.4245 87.7984 69.0648 106.101 51.3858 104.99C46.4436 104.676 41.8825 102.78 38.5176 99.6819C41.3962 104.48 44.6297 108.376 48.1392 110.925H67.1194C80.2243 101.329 89.7407 73.248 89.7407 48.0037C89.7276 47.2977 89.7144 46.6179 89.7013 45.925Z" fill="#EF8114"/>
<path d="M34.7976 44.5001C40.1078 46.8794 46.7194 49.8339 57.6159 49.8339C68.5125 49.8339 75.1241 46.8794 80.4343 44.5001C83.5364 43.1143 86.4281 41.8201 89.4907 41.5324C87.6111 14.8893 74.0725 1.95996 57.6159 1.95996C41.1594 1.97303 27.6077 14.8893 25.728 41.5455C28.8038 41.8201 31.6955 43.1143 34.7976 44.5001Z" fill="#FBB03B"/>
<path d="M29.9079 40.6827C29.9079 24.132 39.6609 9.50317 53.6595 2.24756C39.03 4.18239 27.4499 17.0595 25.728 41.5455C27.1607 41.6762 28.554 42.0292 29.9473 42.5129C29.921 41.8985 29.9079 41.2971 29.9079 40.6827Z" fill="#FFCD5F"/>
<path d="M78.5816 11.2681C81.1053 15.2031 82.5643 19.831 82.5643 24.7596C82.5643 36.8261 73.7576 47.1539 62.2827 49.6378C70.4847 48.9449 75.9264 46.5133 80.4349 44.5001C83.537 43.1143 86.4287 41.8201 89.4913 41.5325C88.5318 27.871 84.5096 17.8177 78.5816 11.2681Z" fill="#F7931E"/>
<path d="M53.0818 116.115C52.4771 116.115 51.8725 116.115 51.2679 116.115C50.2163 114.389 49.1516 112.65 48.1001 110.925C49.007 110.925 49.914 110.925 50.8209 110.925C51.5702 112.664 52.3194 114.389 53.0818 116.115Z" fill="#333333"/>
<path d="M54.8955 116.115C54.2909 116.115 53.6862 116.115 53.0816 116.115C52.3324 114.389 51.57 112.65 50.8208 110.925C51.7278 110.925 52.6347 110.925 53.5417 110.925C54.0017 112.664 54.4355 114.389 54.8955 116.115Z" fill="#4D4D4D"/>
<path d="M56.7224 116.115C56.1178 116.115 55.5132 116.115 54.9085 116.115C54.4616 114.389 54.0016 112.65 53.5547 110.925C54.4616 110.925 55.3686 110.925 56.2755 110.925C56.407 112.664 56.5647 114.389 56.7224 116.115Z" fill="#333333"/>
<path d="M58.5367 116.115C57.932 116.115 57.3274 116.115 56.7228 116.115C56.5782 114.389 56.4205 112.65 56.2759 110.925C57.1828 110.925 58.0898 110.925 58.9967 110.925C58.8258 112.664 58.6681 114.389 58.5367 116.115Z" fill="#4D4D4D"/>
<path d="M60.3373 116.115C59.7327 116.115 59.1281 116.115 58.5234 116.115C58.668 114.389 58.8257 112.65 58.9703 110.925C59.8773 110.925 60.7842 110.925 61.6912 110.925C61.2574 112.664 60.7974 114.389 60.3373 116.115Z" fill="#333333"/>
<path d="M62.1513 116.115C61.5467 116.115 60.942 116.115 60.3374 116.115C60.7843 114.389 61.2443 112.65 61.6913 110.925C62.5982 110.925 63.5052 110.925 64.4121 110.925C63.6629 112.664 62.9005 114.389 62.1513 116.115Z" fill="#4D4D4D"/>
<path d="M63.9653 116.115C63.3606 116.115 62.756 116.115 62.1514 116.115C62.9006 114.389 63.663 112.65 64.4122 110.925C65.3191 110.925 66.2261 110.925 67.133 110.925C66.0946 112.664 65.0168 114.389 63.9653 116.115Z" fill="#333333"/>
<path d="M15.1343 68.5547C15.7389 68.5547 16.3435 68.5547 16.9482 68.5547C17.9997 70.2803 19.0644 72.0191 20.1159 73.7447C19.209 73.7447 18.302 73.7447 17.3951 73.7447C16.6459 72.006 15.8835 70.2803 15.1343 68.5547Z" fill="#333333"/>
<path d="M13.3203 68.5547C13.9249 68.5547 14.5296 68.5547 15.1342 68.5547C15.8834 70.2803 16.6458 72.0191 17.395 73.7447C16.4881 73.7447 15.5811 73.7447 14.6742 73.7447C14.2273 72.006 13.7672 70.2803 13.3203 68.5547Z" fill="#4D4D4D"/>
<path d="M11.5063 68.5547C12.111 68.5547 12.7156 68.5547 13.3203 68.5547C13.7672 70.2803 14.2272 72.0191 14.6741 73.7447C13.7672 73.7447 12.8602 73.7447 11.9533 73.7447C11.8087 72.006 11.6509 70.2803 11.5063 68.5547Z" fill="#333333"/>
<path d="M9.69247 68.5547C10.2971 68.5547 10.9017 68.5547 11.5064 68.5547C11.651 70.2803 11.8087 72.0191 11.9533 73.7447C11.0463 73.7447 10.1394 73.7447 9.23242 73.7447C9.39015 72.006 9.54788 70.2803 9.69247 68.5547Z" fill="#4D4D4D"/>
<path d="M7.87876 68.5547C8.48339 68.5547 9.08803 68.5547 9.69266 68.5547C9.54808 70.2803 9.39035 72.0191 9.24576 73.7447C8.33881 73.7447 7.43185 73.7447 6.5249 73.7447C6.97181 72.006 7.43185 70.2803 7.87876 68.5547Z" fill="#333333"/>
<path d="M6.06452 68.5547C6.66916 68.5547 7.27379 68.5547 7.87843 68.5547C7.43152 70.2803 6.97147 72.0191 6.52457 73.7447C5.61762 73.7447 4.71066 73.7447 3.80371 73.7447C4.55293 72.006 5.3153 70.2803 6.06452 68.5547Z" fill="#4D4D4D"/>
<path d="M4.25077 68.5547C4.85541 68.5547 5.46004 68.5547 6.06468 68.5547C5.31545 70.2803 4.55309 72.0191 3.80387 73.7447C2.89691 73.7447 1.98996 73.7447 1.08301 73.7447C2.13455 72.006 3.19923 70.2803 4.25077 68.5547Z" fill="#333333"/>
<path d="M57.7477 129.149C57.7477 129.149 57.8791 129.149 58.1157 129.149C58.3655 129.149 58.7204 129.162 59.1804 129.188C59.6405 129.214 60.1925 129.254 60.8234 129.345C61.4544 129.437 62.1642 129.554 62.9134 129.79C63.2946 129.907 63.6757 130.038 64.0569 130.221C64.2541 130.312 64.4381 130.417 64.6221 130.548C64.8061 130.678 64.977 130.822 65.1085 131.018C65.2399 131.201 65.3188 131.45 65.2662 131.685C65.2136 131.933 65.0822 132.13 64.9113 132.3C64.5696 132.639 64.1227 132.862 63.6757 133.045C62.7688 133.411 61.7698 133.633 60.7446 133.777C59.7193 133.921 58.6809 133.986 57.6294 133.999C56.591 133.999 55.5395 133.921 54.5142 133.777C53.5021 133.633 52.5031 133.411 51.583 133.045C51.1361 132.849 50.6892 132.626 50.3475 132.286C50.1766 132.117 50.0452 131.907 50.0057 131.659C49.9663 131.424 50.0452 131.175 50.1897 130.992C50.3212 130.809 50.4921 130.652 50.6761 130.535C50.8601 130.404 51.0441 130.299 51.2413 130.208C51.6225 130.025 52.0168 129.894 52.3848 129.776C53.1341 129.554 53.8438 129.423 54.4748 129.345C55.1057 129.254 55.6578 129.214 56.1178 129.188C56.5779 129.162 56.9327 129.162 57.1825 129.149C57.4322 129.149 57.5637 129.149 57.5637 129.149C57.5637 129.149 57.4322 129.149 57.1956 129.162C56.9459 129.175 56.591 129.175 56.1441 129.214C55.684 129.254 55.132 129.293 54.5142 129.397C53.8833 129.489 53.1866 129.633 52.4374 129.855C52.0694 129.973 51.675 130.103 51.307 130.286C51.123 130.378 50.939 130.482 50.7549 130.613C50.5841 130.731 50.4132 130.888 50.2949 131.058C50.2292 131.149 50.1897 131.241 50.1503 131.345C50.1372 131.398 50.124 131.45 50.124 131.502V131.541C50.124 131.554 50.124 131.567 50.124 131.581L50.1372 131.659C50.1766 131.868 50.2949 132.064 50.4658 132.234C50.7944 132.561 51.2281 132.77 51.675 132.966C52.582 133.332 53.5678 133.541 54.5799 133.685C55.592 133.829 56.6304 133.894 57.6688 133.881C58.7072 133.881 59.7456 133.829 60.7577 133.685C61.7698 133.541 62.7556 133.332 63.6626 132.979C64.1095 132.796 64.5433 132.574 64.8719 132.26C65.0427 132.103 65.161 131.907 65.2005 131.698C65.2399 131.476 65.1742 131.267 65.0559 131.084C64.9376 130.901 64.7667 130.757 64.5958 130.639C64.425 130.509 64.2409 130.404 64.0438 130.312C63.6757 130.129 63.2814 129.986 62.9134 129.881C62.1642 129.659 61.4675 129.515 60.8366 129.423C60.2057 129.332 59.6536 129.28 59.2067 129.24C58.7467 129.201 58.3918 129.201 58.1552 129.188C57.8528 129.149 57.7477 129.149 57.7477 129.149Z" fill="#B3DA26"/>
<path d="M14.6343 59.678C14.6343 59.678 14.7526 59.7303 14.9761 59.8349C15.1995 59.9395 15.5281 60.0963 15.9225 60.3186C16.7243 60.7761 17.8678 61.4429 19.0376 62.5672C19.3268 62.8548 19.616 63.1685 19.892 63.5346C20.1549 63.9006 20.4309 64.332 20.5098 64.9596C20.5098 65.1164 20.5098 65.2995 20.4704 65.4825C20.4441 65.574 20.4046 65.6655 20.3652 65.757L20.3521 65.7962C20.3258 65.8355 20.3915 65.7309 20.2995 65.8878V65.9008L20.2732 65.94L20.2206 66.0054C20.1943 66.0708 19.9709 66.2538 19.7869 66.3715C19.616 66.463 19.4714 66.5153 19.3268 66.5676C18.7222 66.7244 18.1833 66.6983 17.6575 66.6329C16.606 66.5022 15.5807 66.1884 14.5949 65.7962C13.6091 65.391 12.6495 64.9203 11.7032 64.3843C11.2694 64.1229 10.8093 63.8353 10.3624 63.5215C9.92868 63.2078 9.49492 62.894 9.08745 62.5672C8.25936 61.9004 7.51014 61.1553 6.87922 60.3055C6.5769 59.8741 6.27458 59.4165 6.12999 58.8152C6.07742 58.5014 6.03798 58.1484 6.20886 57.7693L6.27458 57.6386L6.28772 57.5994L6.30087 57.5863C6.40602 57.4425 6.3403 57.534 6.35345 57.5078L6.37973 57.4817L6.49803 57.351C6.61633 57.2464 6.83978 57.0764 6.98437 57.0241C7.57586 56.8019 8.07534 56.828 8.53539 56.8803C8.99544 56.9457 9.40291 57.0503 9.79724 57.1679C11.3483 57.6516 12.4918 58.3184 13.2805 58.8021C13.6748 59.0505 13.964 59.2466 14.1611 59.3904C14.3583 59.5342 14.4634 59.6126 14.4634 59.6126C14.4634 59.6126 13.9902 59.3904 13.1359 59.0636C12.2946 58.7367 11.0722 58.2792 9.58693 57.9916C9.21889 57.9262 8.83771 57.8739 8.44338 57.8739C8.0622 57.8608 7.66787 57.9 7.43127 58.0308C7.36555 58.07 7.41813 58.0438 7.35241 58.07L7.24725 58.2007L7.22096 58.2399C7.24725 58.2138 7.16839 58.3184 7.2604 58.1746V58.1876V58.2138C7.23411 58.2661 7.2604 58.3837 7.28669 58.5276C7.39184 58.8282 7.61529 59.2074 7.89132 59.5342C8.44338 60.2271 9.1926 60.8546 9.95497 61.469C10.3361 61.7697 10.7436 62.0573 11.1642 62.3449C11.5717 62.6195 12.0055 62.8809 12.4524 63.1424C13.2936 63.6522 14.2137 64.1229 15.1207 64.502C16.0276 64.868 16.9477 65.221 17.8152 65.3648C18.249 65.4433 18.6827 65.4694 18.9982 65.404L19.1822 65.3518C19.1954 65.3256 19.1954 65.4171 19.2874 65.2864C19.3662 65.2341 19.3662 65.1818 19.3794 65.0511C19.3794 64.7896 19.2217 64.4236 19.0376 64.0967C18.8536 63.7699 18.617 63.4561 18.3804 63.1685C17.4209 62.0181 16.4219 61.1683 15.7253 60.5931C15.0681 59.9917 14.6343 59.678 14.6343 59.678Z" fill="#B3DA26"/>
<path d="M57.6161 92.7532C66.8282 92.7532 74.2961 85.3257 74.2961 76.1633C74.2961 67.001 66.8282 59.5735 57.6161 59.5735C48.4039 59.5735 40.936 67.001 40.936 76.1633C40.936 85.3257 48.4039 92.7532 57.6161 92.7532Z" fill="white"/>
<path d="M1.08301 73.7317V89.4979C1.08301 94.7011 5.36803 98.9629 10.5994 98.9629C15.8308 98.9629 20.1159 94.7011 20.1159 89.4979V73.7317H1.08301Z" fill="#FBB03B"/>
<path d="M3.44893 85.9943V73.7317H1.06982V89.4979C1.06982 94.7011 5.35485 98.9629 10.5863 98.9629C15.5679 98.9629 19.6689 95.1063 20.0633 90.2562C16.2909 97.0804 3.44893 95.6685 3.44893 85.9943Z" fill="#F7931E"/>
<path d="M96.6152 30.211C96.4706 30.211 96.326 30.198 96.1683 30.1718C95.8265 30.1064 87.8611 28.4069 87.0856 20.9944C86.9541 19.7786 87.8479 18.6936 89.0704 18.5628C90.2928 18.4452 91.3838 19.3211 91.5152 20.5369C91.949 24.7072 96.8649 25.8054 97.0752 25.8446C98.2713 26.093 99.0337 27.2696 98.7971 28.4592C98.5736 29.492 97.6536 30.211 96.6152 30.211Z" fill="#333333"/>
<path d="M110.219 26.5897C109.917 26.5897 109.602 26.5243 109.312 26.3936C108.195 25.8968 107.696 24.5895 108.195 23.4783C108.866 21.9879 110.325 17.4123 109.102 14.2355C108.668 13.0982 109.234 11.817 110.377 11.3856C111.521 10.9542 112.809 11.5163 113.243 12.6537C115.385 18.2228 112.375 25.0078 112.244 25.2954C111.862 26.106 111.074 26.5897 110.219 26.5897Z" fill="#333333"/>
<path d="M105.488 24.7203C105.225 24.7203 104.962 24.681 104.712 24.5765C103.569 24.145 102.977 22.8769 103.411 21.7396C103.463 21.6088 106.46 13.2812 102.018 9.65997C101.071 8.88866 100.927 7.48983 101.702 6.54856C102.478 5.60729 103.871 5.46349 104.83 6.2348C111.744 11.8693 107.748 22.8116 107.591 23.2691C107.249 24.1712 106.395 24.7203 105.488 24.7203Z" fill="#333333"/>
<path d="M100.69 25.8317C100.519 25.8317 100.361 25.8186 100.19 25.7794C98.9941 25.5048 98.2581 24.3283 98.521 23.1386C98.5867 22.8249 100.164 15.5431 94.5777 12.7977C93.4736 12.2617 93.0267 10.9283 93.5656 9.84319C94.1045 8.74504 95.4452 8.30056 96.5362 8.83656C103.542 12.2879 103.726 20.3409 102.845 24.1191C102.622 25.1388 101.702 25.8317 100.69 25.8317Z" fill="#333333"/>
<path d="M98.8762 49.2455C98.2716 49.2455 97.6669 49.2455 97.0623 49.2455C96.0108 47.5198 94.9461 45.7811 93.8945 44.0554C94.8015 44.0554 95.7084 44.0554 96.6154 44.0554C97.3646 45.7811 98.127 47.5067 98.8762 49.2455Z" fill="#333333"/>
<path d="M100.69 49.2455C100.085 49.2455 99.4807 49.2455 98.876 49.2455C98.1268 47.5198 97.3645 45.7811 96.6152 44.0554C97.5222 44.0554 98.4291 44.0554 99.3361 44.0554C99.783 45.7811 100.243 47.5067 100.69 49.2455Z" fill="#4D4D4D"/>
<path d="M102.517 49.2455C101.912 49.2455 101.308 49.2455 100.703 49.2455C100.256 47.5198 99.796 45.7811 99.3491 44.0554C100.256 44.0554 101.163 44.0554 102.07 44.0554C102.201 45.7811 102.359 47.5067 102.517 49.2455Z" fill="#333333"/>
<path d="M104.318 49.2455C103.713 49.2455 103.109 49.2455 102.504 49.2455C102.359 47.5198 102.202 45.7811 102.057 44.0554C102.964 44.0554 103.871 44.0554 104.778 44.0554C104.633 45.7811 104.489 47.5067 104.318 49.2455Z" fill="#4D4D4D"/>
<path d="M106.145 49.2455C105.54 49.2455 104.936 49.2455 104.331 49.2455C104.476 47.5198 104.633 45.7811 104.778 44.0554C105.685 44.0554 106.592 44.0554 107.499 44.0554C107.052 45.7811 106.592 47.5067 106.145 49.2455Z" fill="#333333"/>
<path d="M107.946 49.2455C107.341 49.2455 106.736 49.2455 106.132 49.2455C106.579 47.5198 107.039 45.7811 107.486 44.0554C108.393 44.0554 109.3 44.0554 110.207 44.0554C109.457 45.7811 108.708 47.5067 107.946 49.2455Z" fill="#4D4D4D"/>
<path d="M109.76 49.2455C109.155 49.2455 108.55 49.2455 107.946 49.2455C108.695 47.5198 109.457 45.7811 110.207 44.0554C111.114 44.0554 112.021 44.0554 112.927 44.0554C111.876 45.7811 110.811 47.5067 109.76 49.2455Z" fill="#333333"/>
<path d="M99.3755 58.1093C99.3755 58.1093 99.2572 58.057 99.0337 57.9524C98.8103 57.8478 98.4817 57.6909 98.0873 57.4687C97.2855 57.0111 96.142 56.3444 94.9722 55.2201C94.683 54.9325 94.3938 54.6187 94.1178 54.2527C93.8549 53.8866 93.5789 53.4552 93.5 52.8277C93.5 52.6708 93.5 52.4878 93.5394 52.3048C93.5657 52.2133 93.6052 52.1218 93.6446 52.0303L93.6577 51.991C93.684 51.9518 93.6183 52.0564 93.7103 51.8995V51.8864L93.7366 51.8472L93.7892 51.7819C93.8155 51.7165 94.0389 51.5335 94.2229 51.4158C94.3938 51.3243 94.5384 51.272 94.683 51.2197C95.2876 51.0628 95.8265 51.089 96.3523 51.1543C97.4038 51.2851 98.4291 51.5988 99.4149 51.991C100.401 52.3963 101.36 52.8669 102.307 53.4029C102.74 53.6644 103.2 53.952 103.647 54.2658C104.081 54.5795 104.515 54.8933 104.922 55.2201C105.75 55.8868 106.5 56.632 107.131 57.4818C107.433 57.9132 107.735 58.3707 107.88 58.9721C107.932 59.2859 107.972 59.6388 107.801 60.018L107.735 60.1487L107.722 60.1879L107.709 60.201C107.604 60.3448 107.67 60.2533 107.656 60.2794L107.63 60.3056L107.512 60.4363C107.393 60.5409 107.17 60.7108 107.025 60.7631C106.434 60.9854 105.934 60.9592 105.474 60.9069C105.014 60.8416 104.607 60.737 104.213 60.6193C102.662 60.1356 101.518 59.4689 100.729 58.9852C100.335 58.7368 100.046 58.5407 99.8487 58.3969C99.6515 58.2531 99.5464 58.1746 99.5464 58.1746C99.5464 58.1746 100.02 58.3969 100.874 58.7237C101.715 59.0505 102.938 59.5081 104.423 59.7957C104.791 59.8611 105.172 59.9134 105.566 59.9134C105.948 59.9264 106.342 59.8872 106.579 59.7565C106.644 59.7173 106.592 59.7434 106.657 59.7173L106.763 59.5865L106.789 59.5473C106.763 59.5735 106.841 59.4689 106.749 59.6127V59.5996V59.5735C106.776 59.5212 106.749 59.4035 106.723 59.2597C106.618 58.959 106.395 58.5799 106.118 58.2531C105.566 57.5602 104.817 56.9327 104.055 56.3183C103.674 56.0176 103.266 55.73 102.846 55.4424C102.438 55.1678 102.004 54.9064 101.557 54.6449C100.716 54.135 99.7961 53.6644 98.8891 53.2853C97.9822 52.9192 97.0621 52.5663 96.1946 52.4224C95.7608 52.344 95.3271 52.3179 95.0116 52.3832L94.8276 52.4355C94.8144 52.4617 94.8144 52.3702 94.7224 52.5009C94.6435 52.5532 94.6436 52.6055 94.6304 52.7362C94.6304 52.9977 94.7881 53.3637 94.9722 53.6905C95.1562 54.0174 95.3928 54.3311 95.6294 54.6187C96.5889 55.7692 97.5879 56.6189 98.2845 57.1942C98.9417 57.7955 99.3755 58.1093 99.3755 58.1093Z" fill="#B3DA26"/>
<path d="M112.927 44.0557V28.2894C112.927 23.0863 108.642 18.8245 103.411 18.8245C98.1796 18.8245 93.8945 23.0863 93.8945 28.2894V44.0557H112.927Z" fill="#FBB03B"/>
<path d="M107.249 19.6218C108.76 21.1775 110.14 23.2692 110.535 25.4263C111.034 28.1717 110.955 28.6815 110.548 31.4138C110.39 32.4858 109.759 33.6101 109.365 34.4991C108.458 36.5647 106.499 38.1857 104.659 39.3754C101.334 41.5325 97.0224 41.0226 93.9072 38.8394V44.0294H112.94V28.2893C112.927 24.4328 110.574 21.0991 107.249 19.6218Z" fill="#F7931E"/>
<path d="M57.6161 61.7698C66.4622 61.7698 73.6915 68.607 74.2567 77.2615C74.283 76.8954 74.2961 76.5294 74.2961 76.1633C74.2961 66.999 66.8302 59.5735 57.6161 59.5735C48.402 59.5735 40.936 66.999 40.936 76.1633C40.936 76.5294 40.9492 76.9085 40.9755 77.2615C41.5407 68.6201 48.77 61.7698 57.6161 61.7698Z" fill="#829727"/>
<path d="M57.6161 87.563C51.2805 87.563 46.1543 82.4253 46.1543 76.1632C46.1543 69.862 51.32 64.7634 57.6161 64.7634C63.9516 64.7634 69.0778 69.9012 69.0778 76.1632C69.0778 82.4253 63.9253 87.563 57.6161 87.563ZM57.6161 65.6655C51.8063 65.6655 47.0481 70.398 47.0481 76.1763C47.0481 81.9547 51.7669 86.6871 57.6161 86.6871C63.4258 86.6871 68.184 81.9939 68.184 76.1763C68.1577 70.3457 63.4258 65.6655 57.6161 65.6655Z" fill="url(#paint0_linear)"/>
<path d="M62.374 79.7323C60.1395 80.9481 54.2114 82.0332 53.3176 76.5425C52.3844 70.7641 58.1153 69.8359 60.7178 70.8818C60.7178 71.81 60.7178 72.9473 60.7178 72.9473C60.7178 72.9473 61.9797 73.1434 62.8341 73.065C62.9918 72.0584 63.4387 70.2804 63.3598 69.5091C58.5622 66.1493 49.6241 68.5417 50.2419 76.6993C50.8465 84.857 60.3629 84.7001 63.3598 81.1442C62.9392 80.4906 62.6106 80.0068 62.374 79.7323Z" fill="url(#paint1_linear)"/>
<path d="M40.9626 20.4193C41.0941 20.0532 41.1861 19.6872 41.3307 19.3342C42.3691 16.798 44.9716 15.2292 47.6794 15.5299C50.4002 15.8306 52.6216 17.87 53.1342 20.5369C53.6337 23.1516 52.4507 25.727 50.1242 27.0474C50.0322 27.0997 49.9402 27.1781 49.8219 27.2304C49.1252 27.8056 48.2446 27.9102 47.4033 27.9494C43.999 28.1194 41.0152 25.544 40.7261 22.1711C40.6866 21.5828 40.7918 20.9945 40.9626 20.4193Z" fill="black"/>
<path d="M52.5822 21.6351C52.5296 24.7073 49.9928 27.1781 46.9433 27.1258C43.9333 27.0735 41.5148 24.5896 41.5542 21.5697C41.5936 18.5368 44.1042 16.1182 47.1668 16.1705C50.4791 16.2489 52.6216 18.929 52.5822 21.6351Z" fill="#F3F3F3"/>
<path d="M52.0695 21.7921C52.0563 24.3152 50.0584 26.25 47.5216 26.2239C45.0636 26.2108 43.0394 24.1975 43.0657 21.7921C43.0788 19.3997 45.103 17.1903 47.6793 17.2295C50.0453 17.2818 52.1221 19.2036 52.0695 21.7921Z" fill="black"/>
<path d="M50.9525 21.5697C50.9525 21.8051 50.9131 22.0534 50.8474 22.2888C50.5713 23.1777 49.7695 23.6091 48.8626 23.3608C48.5997 23.2823 48.4551 23.2562 48.2711 23.5438C47.9031 24.1451 47.0618 24.0929 46.6807 23.5046C46.352 22.9947 46.3652 22.2757 46.7727 21.8312C46.9698 21.6351 46.9698 21.4651 46.9041 21.2298C46.7332 20.6938 46.7201 20.1448 46.891 19.5957C47.1933 18.6021 48.0345 18.1969 49.0203 18.5237C49.9141 18.8244 51.0051 20.2363 50.9525 21.5697Z" fill="#B3DA26"/>
<path d="M43.6833 21.635C43.6833 21.2689 43.7622 20.9552 43.9199 20.6806C44.1433 20.3146 44.4982 20.2231 44.8663 20.4453C45.2737 20.6806 45.4446 21.0336 45.4052 21.4912C45.392 21.9749 45.2343 22.3801 44.7743 22.6155C44.4062 22.7985 43.9988 22.6547 43.7884 22.2886C43.6964 22.0664 43.657 21.818 43.6833 21.635Z" fill="#B3DA26"/>
<path d="M45.3264 23.7138C45.3133 23.8576 45.3133 24.0668 45.0636 24.0276C44.8664 24.0145 44.7481 23.8576 44.7612 23.6354C44.7612 23.4524 44.8401 23.3086 45.0373 23.3086C45.2213 23.2955 45.3264 23.4654 45.3264 23.7138Z" fill="#B3DA26"/>
<path d="M61.0339 20.4193C61.1653 20.0532 61.2573 19.6872 61.4019 19.3342C62.4403 16.798 65.0429 15.2292 67.7506 15.5299C70.4714 15.8306 72.6928 17.87 73.2054 20.5369C73.7049 23.1516 72.5219 25.727 70.1954 27.0474C70.1034 27.0997 70.0114 27.1781 69.8931 27.2304C69.1964 27.8056 68.3158 27.9102 67.4745 27.9494C64.0702 28.1194 61.0864 25.544 60.7973 22.1711C60.7447 21.5828 60.863 20.9945 61.0339 20.4193Z" fill="black"/>
<path d="M72.6662 21.6351C72.6136 24.7073 70.0768 27.1781 67.0273 27.1258C64.0173 27.0735 61.5987 24.5896 61.6382 21.5697C61.6776 18.5368 64.1881 16.1182 67.2508 16.1705C70.5368 16.2489 72.6925 18.929 72.6662 21.6351Z" fill="#F3F3F3"/>
<path d="M72.1408 21.7921C72.1276 24.3152 70.1297 26.25 67.5929 26.2239C65.1349 26.2108 63.1107 24.1975 63.137 21.7921C63.1501 19.3997 65.1743 17.1903 67.7506 17.2295C70.1297 17.2818 72.1802 19.2036 72.1408 21.7921Z" fill="black"/>
<path d="M71.0238 21.5697C71.0238 21.8051 70.9844 22.0534 70.9187 22.2888C70.6426 23.1777 69.8409 23.6091 68.9339 23.3608C68.671 23.2823 68.5264 23.2562 68.3424 23.5438C67.9744 24.1451 67.1331 24.0929 66.7519 23.5046C66.4233 22.9947 66.4365 22.2757 66.844 21.8312C67.0411 21.6351 67.0411 21.4651 66.9754 21.2298C66.8045 20.6938 66.7914 20.1448 66.9623 19.5957C67.2646 18.6021 68.1058 18.1969 69.0916 18.5237C69.9986 18.8244 71.0633 20.2363 71.0238 21.5697Z" fill="#B3DA26"/>
<path d="M63.7549 21.635C63.7549 21.2689 63.8337 20.9552 63.9915 20.6806C64.2149 20.3146 64.5698 20.2231 64.9379 20.4453C65.3453 20.6806 65.5162 21.0336 65.4768 21.4912C65.4636 21.9749 65.3059 22.3801 64.8459 22.6155C64.4778 22.7985 64.0703 22.6547 63.86 22.2886C63.7549 22.0664 63.7549 21.818 63.7549 21.635Z" fill="#B3DA26"/>
<path d="M65.3977 23.7138C65.3846 23.8576 65.3846 24.0668 65.1348 24.0276C64.9377 24.0145 64.8194 23.8576 64.8325 23.6354C64.8325 23.4524 64.9114 23.3086 65.1086 23.3086C65.2794 23.2955 65.3977 23.4654 65.3977 23.7138Z" fill="#B3DA26"/>
<path d="M54.0278 31.5184C54.0278 32.878 55.3817 33.9892 57.0116 33.9892C58.6677 33.9892 59.9953 32.878 59.9822 31.5184C59.9822 30.1588 58.6415 30.028 56.9984 30.0411C55.3817 30.0411 54.0278 30.1588 54.0278 31.5184Z" fill="black"/>
<path d="M65.0688 36.0024C67.8817 35.2965 70.7077 34.6951 73.5469 34.1722C76.386 33.6492 79.2515 33.1786 82.1169 32.8256C82.8267 32.7211 83.5496 32.6295 84.2726 32.5511C84.9955 32.4727 85.7053 32.3811 86.4282 32.3027C87.8741 32.172 89.3068 32.0282 90.7527 31.9236C93.6313 31.6752 96.523 31.5837 99.4279 31.4922L97.2591 31.466C96.5362 31.453 95.8132 31.4399 95.0903 31.466L92.9215 31.5183C92.1986 31.5314 91.4756 31.5837 90.7527 31.6229C87.861 31.7667 84.9692 32.0674 82.0906 32.4334C79.212 32.8256 76.3597 33.2963 73.5206 33.8846C72.101 34.1852 70.6946 34.499 69.275 34.8389C67.8423 35.205 66.449 35.571 65.0688 36.0024Z" fill="black"/>
<path d="M66.4883 37.4795C67.7896 37.3096 69.0777 37.1658 70.379 37.035C71.6803 36.8912 72.9684 36.7736 74.2697 36.6559C76.8722 36.4337 79.4748 36.2376 82.0774 36.1199C83.3786 36.0415 84.6799 36.0023 85.9812 35.95C87.2825 35.9238 88.5838 35.8846 89.8982 35.8846L91.8567 35.8715L93.8152 35.8977C95.1164 35.8846 96.4177 35.9761 97.7321 36.0023C95.1296 35.7669 92.5139 35.6101 89.9113 35.5839C87.2956 35.5447 84.6799 35.6101 82.0774 35.7277C79.4617 35.8715 76.8591 36.0676 74.2565 36.3552C71.6408 36.6298 69.0514 36.9827 66.4883 37.4795Z" fill="black"/>
<path d="M66.0283 39.2055C67.1193 39.1925 68.2103 39.1925 69.2881 39.2055C70.3791 39.2186 71.4569 39.2317 72.5479 39.2709C74.7167 39.3363 76.8986 39.4016 79.0674 39.5454C81.2362 39.6631 83.405 39.82 85.5738 40.003C87.7426 40.1729 89.8983 40.4083 92.0671 40.6174C90.9892 40.4344 89.9246 40.2645 88.8467 40.1076C87.7689 39.9638 86.6911 39.82 85.6001 39.7023C83.4313 39.4539 81.2625 39.297 79.0937 39.1532C76.9118 39.0487 74.743 38.9702 72.561 38.9702C70.3659 38.9702 68.1971 39.0094 66.0283 39.2055Z" fill="black"/>
<path d="M48.9543 36.0024C46.1414 35.2965 43.3154 34.6951 40.4762 34.1722C37.6371 33.6492 34.7716 33.1786 31.9062 32.8256C31.1964 32.7211 30.4735 32.6295 29.7505 32.5511C29.0276 32.4727 28.3178 32.3811 27.5949 32.3027C26.149 32.172 24.7163 32.0282 23.2704 31.9236C20.3918 31.6752 17.5001 31.5837 14.5952 31.4922L16.764 31.466C17.4869 31.453 18.2099 31.4399 18.9328 31.466L21.1016 31.5183C21.8245 31.5314 22.5475 31.5837 23.2704 31.6229C26.1621 31.7667 29.0539 32.0674 31.9325 32.4334C34.8111 32.8256 37.6634 33.2963 40.5025 33.8846C41.9221 34.1852 43.3285 34.499 44.7481 34.8389C46.1677 35.205 47.5741 35.571 48.9543 36.0024Z" fill="black"/>
<path d="M47.5217 37.4795C46.2204 37.3096 44.9323 37.1658 43.631 37.035C42.3297 36.8912 41.0416 36.7736 39.7403 36.6559C37.1377 36.4337 34.5352 36.2376 31.9326 36.1199C30.6313 36.0415 29.3301 36.0023 28.0288 35.95C26.7275 35.9238 25.4262 35.8846 24.1118 35.8846L22.1533 35.8715L20.1948 35.8977C18.8935 35.8846 17.5923 35.9761 16.2778 36.0023C18.8804 35.7669 21.4961 35.6101 24.0987 35.5839C26.7144 35.5447 29.3301 35.6101 31.9326 35.7277C34.5483 35.8715 37.1509 36.0676 39.7534 36.3552C42.3691 36.6298 44.9586 36.9827 47.5217 37.4795Z" fill="black"/>
<path d="M47.9948 39.2055C46.9038 39.1925 45.8129 39.1925 44.735 39.2055C43.6441 39.2186 42.5662 39.2317 41.4753 39.2709C39.3065 39.3363 37.1245 39.4016 34.9557 39.5454C32.7869 39.6631 30.6181 39.82 28.4493 40.003C26.2805 40.1729 24.1249 40.4083 21.9561 40.6174C23.0339 40.4344 24.0986 40.2645 25.1764 40.1076C26.2542 39.9638 27.3321 39.82 28.423 39.7023C30.5918 39.4539 32.7606 39.297 34.9294 39.1532C37.1114 39.0487 39.2802 38.9702 41.4621 38.9702C43.6441 38.9702 45.826 39.0094 47.9948 39.2055Z" fill="black"/>
<path d="M52.0693 39.6238C52.0693 39.6238 55.6183 42.9575 57.3533 42.9444C59.0752 42.9313 63.1368 39.1663 63.1368 39.1663C63.1368 39.1663 58.1288 41.624 57.3533 41.5586C56.5647 41.4933 52.0693 39.6238 52.0693 39.6238Z" fill="black"/>
<defs>
<linearGradient id="paint0_linear" x1="57.6226" y1="67.148" x2="57.6226" y2="92.6622" gradientUnits="userSpaceOnUse">
<stop stop-color="#008BD2"/>
<stop offset="1" stop-color="#004F9F"/>
</linearGradient>
<linearGradient id="paint1_linear" x1="56.7968" y1="67.148" x2="56.7968" y2="92.6618" gradientUnits="userSpaceOnUse">
<stop stop-color="#008BD2"/>
<stop offset="1" stop-color="#004F9F"/>
</linearGradient>
</defs>
</svg>
